<svg xmlns="http://www.w3.org/2000/svg" width="24.567" height="24.567" viewBox="0 0 24.567 24.567"><defs><style>.a{fill:#eceff1;}.b{fill:#747474;}</style></defs><g transform="translate(1.228 9.047)"><path class="a" d="M23.31,8.838H1.2v11.94a2.764,2.764,0,0,0,2.764,2.764H20.546a2.764,2.764,0,0,0,2.764-2.764Z" transform="translate(-1.2 -8.838)"/></g><g transform="translate(1.228 2.592)"><path class="a" d="M20.546,2.532H3.964A2.983,2.983,0,0,0,1.2,5.693V8.9H23.31v-3.2a2.983,2.983,0,0,0-2.764-3.161Z" transform="translate(-1.2 -2.532)"/></g><g transform="translate(0 2.047)"><path class="b" d="M21.752,24.52H2.815A2.817,2.817,0,0,1,0,21.7V4.815A2.817,2.817,0,0,1,2.815,2H21.752a2.817,2.817,0,0,1,2.815,2.815V21.7A2.817,2.817,0,0,1,21.752,24.52ZM2.815,3.535a1.281,1.281,0,0,0-1.28,1.28V21.7a1.281,1.281,0,0,0,1.28,1.28H21.752a1.281,1.281,0,0,0,1.28-1.28V4.815a1.281,1.281,0,0,0-1.28-1.28Z" transform="translate(0 -2)"/></g><g transform="translate(0 8.189)"><path class="b" d="M23.8,9.535H.768A.768.768,0,0,1,.768,8H23.8a.768.768,0,1,1,0,1.535Z" transform="translate(0 -8)"/></g><g transform="translate(5.118)"><path class="b" d="M5.768,6.142A.768.768,0,0,1,5,5.374V.768a.768.768,0,1,1,1.535,0V5.374A.768.768,0,0,1,5.768,6.142Z" transform="translate(-5)"/></g><g transform="translate(17.913)"><path class="b" d="M18.268,6.142a.768.768,0,0,1-.768-.768V.768a.768.768,0,1,1,1.535,0V5.374A.768.768,0,0,1,18.268,6.142Z" transform="translate(-17.5)"/></g></svg>