<svg xmlns="http://www.w3.org/2000/svg" width="25.053" height="25.053" viewBox="0 0 25.053 25.053"><defs><style>.a{fill:#eceff1;}.b{fill:#fafafa;}.c{fill:#747474;}</style></defs><g transform="translate(0.001 -0.004)"><path class="a" d="M92.1,322.651l-5.741-2.61a.522.522,0,0,0-.586.1l-.89.892h-2.7l-.891-.891a.522.522,0,0,0-.586-.1l-5.741,2.61a.522.522,0,0,0-.287.612l1.566,5.741a.522.522,0,0,0,.5.384h3.132a.522.522,0,0,0,.522-.522c0-1.446,1.713-2.61,3.132-2.61s3.132,1.164,3.132,2.61a.522.522,0,0,0,.522.522h3.132a.522.522,0,0,0,.5-.385l1.566-5.741A.522.522,0,0,0,92.1,322.651Z" transform="translate(-71.006 -304.333)"/><g transform="translate(-0.001 17.749)"><path class="a" d="M6.244,369.333l-1.566-5.741a.522.522,0,0,0-.135-.232l-.522-.522a.522.522,0,0,0-.6-.1l-1.184.587a2.6,2.6,0,0,0-1.381,1.824L.01,369.366a.522.522,0,0,0,.512.626H5.741a.522.522,0,0,0,.5-.659Z" transform="translate(0.001 -362.685)"/><path class="a" d="M389.394,365.131a2.6,2.6,0,0,0-1.387-1.828l-1.18-.585a.522.522,0,0,0-.6.1l-.522.522a.522.522,0,0,0-.135.232L384,369.312a.522.522,0,0,0,.5.66h5.219a.522.522,0,0,0,.511-.626Z" transform="translate(-365.196 -362.664)"/></g><path class="a" d="M174.846,426.671c-1.971,0-4.175,1.566-4.175,3.654a.522.522,0,0,0,.522.522H178.5a.522.522,0,0,0,.522-.522C179.022,428.237,176.817,426.671,174.846,426.671Z" transform="translate(-162.32 -405.79)"/><path class="a" d="M140.515,14.943a.522.522,0,0,0,.016-.127c0-2-.117-4.508-.674-5.067a7.55,7.55,0,0,0-2.8-1.282.522.522,0,0,0-.626.313l-.953,2.382h-2.426L132.1,8.776a.522.522,0,0,0-.626-.313,7.55,7.55,0,0,0-2.8,1.286c-.557.558-.674,3.064-.674,5.067a.464.464,0,0,0,.017.122,3.17,3.17,0,0,0-.017.4,3.494,3.494,0,0,0,.024.364.528.528,0,0,0-.024.158v3.132a.522.522,0,0,0,.522.522,2.824,2.824,0,0,1,2.1.835,1.828,1.828,0,0,1,.505,1.395.522.522,0,0,0,.811.478l.923-.62h2.812l.922.621a.522.522,0,0,0,.811-.478,1.828,1.828,0,0,1,.505-1.395,2.825,2.825,0,0,1,2.1-.836.522.522,0,0,0,.522-.522V15.86a.5.5,0,0,0-.025-.156,3.409,3.409,0,0,0,.025-.366A3.3,3.3,0,0,0,140.515,14.943Z" transform="translate(-121.741 -8.027)"/><g transform="translate(7.288 6.261)"><path class="b" d="M281.506,128.368a.522.522,0,0,0-.66-.33l-3.132,1.044a.522.522,0,0,0,.165,1.017h2.61a.522.522,0,0,0,.522-.522v-.494l.165-.055A.522.522,0,0,0,281.506,128.368Z" transform="translate(-271.075 -128.004)"/><path class="b" d="M152.788,128.951l-3.132-1.044a.522.522,0,1,0-.367.977l.038.013.687.23v.319a.522.522,0,0,0,.522.522h2.088a.522.522,0,0,0,.165-1.017Z" transform="translate(-148.95 -127.873)"/></g><g transform="translate(6.263 0.004)"><path class="a" d="M197.524.713A.522.522,0,0,0,197.2.441a9.145,9.145,0,0,0-5.589,0,.522.522,0,0,0-.354.648c0,.016.01.032.016.047l1.086,2.714a.522.522,0,0,0,.48.329h3.132a.522.522,0,0,0,.484-.328l1.081-2.715A.522.522,0,0,0,197.524.713Z" transform="translate(-188.14 -0.004)"/><path class="a" d="M131.932,217.075a.522.522,0,0,0,.235-.392,2.857,2.857,0,0,0-.776-2.192,3.862,3.862,0,0,0-2.865-1.173.522.522,0,0,0-.522.522v1.044a.522.522,0,0,0,.1.313l1.566,2.088a.522.522,0,0,0,.418.209h1.044a.522.522,0,0,0,.285-.085Z" transform="translate(-128.004 -202.878)"/><path class="a" d="M302.395,213.317a3.862,3.862,0,0,0-2.865,1.174,2.857,2.857,0,0,0-.776,2.192.522.522,0,0,0,.235.392l.511.334a.522.522,0,0,0,.285.082h1.044a.522.522,0,0,0,.418-.209l1.566-2.088a.522.522,0,0,0,.1-.313v-1.044A.522.522,0,0,0,302.395,213.317Z" transform="translate(-290.39 -202.879)"/></g><path class="a" d="M169.344,257.337a.522.522,0,0,0-.467-.288h-.886l-1.434-.956a.522.522,0,0,0-.289-.088h-3.132a.522.522,0,0,0-.291.089l-1.429.955h-.889a.522.522,0,0,0-.418.835l1.566,2.088a.522.522,0,0,0,.651.153l1.977-.989h.8l1.978.989a.522.522,0,0,0,.65-.153l1.566-2.088A.522.522,0,0,0,169.344,257.337Z" transform="translate(-152.176 -243.475)"/><path class="a" d="M197.978,299.77l-2.088-1.044a.522.522,0,0,0-.234-.055h-1.044a.522.522,0,0,0-.234.055l-2.088,1.044a.522.522,0,0,0-.136.835l1.044,1.044a.522.522,0,0,0,.37.153H196.7a.522.522,0,0,0,.37-.152l1.044-1.044a.522.522,0,0,0-.136-.835h0Z" transform="translate(-182.608 -284.053)"/><path class="c" d="M140.009,12.53a.522.522,0,0,1-.522-.522V8.053a.522.522,0,0,1-.042-.265l.015-.13a3,3,0,0,0,.027-.347c0-.16-.01-.313-.024-.474a.523.523,0,0,1,.024-.209A15.955,15.955,0,0,0,139.1,2.44a9.993,9.993,0,0,0-4.831-1.393,9.866,9.866,0,0,0-4.85,1.413,16.9,16.9,0,0,0-.37,4.183.469.469,0,0,1,.024.193c-.014.161-.024.314-.024.474a2.994,2.994,0,0,0,.027.347l.015.13a.522.522,0,0,1-.042.265v3.955a.522.522,0,0,1-1.044,0V7.833a.522.522,0,0,1,.023-.154A3.35,3.35,0,0,1,128,7.311c0-.136.005-.269.016-.4A.463.463,0,0,1,128,6.789c0-2,.117-4.508.674-5.067a9.948,9.948,0,0,1,11.178,0c.557.558.674,3.064.674,5.067a.521.521,0,0,1-.015.124c.009.132.015.264.015.4a3.406,3.406,0,0,1-.022.356.619.619,0,0,1,.022.166v4.175A.522.522,0,0,1,140.009,12.53Z" transform="translate(-121.742 0)"/><path class="c" d="M280.492,130.211h-2.61a.522.522,0,0,1-.165-1.017l3.132-1.044a.522.522,0,0,1,.33.99l-.165.055v.494A.522.522,0,0,1,280.492,130.211Z" transform="translate(-263.791 -121.856)"/><path class="c" d="M152.623,129.967h-2.088a.522.522,0,0,1-.522-.522v-.319l-.687-.23a.522.522,0,1,1,.292-1l.038.013,3.132,1.044a.522.522,0,0,1-.165,1.017Z" transform="translate(-141.663 -121.613)"/><path class="c" d="M196.777,14.308h-3.132a.522.522,0,0,1-.484-.328l-1.044-2.61a.522.522,0,0,1,.969-.388L194,13.265h2.425l.913-2.282a.522.522,0,1,1,.97.387h0l-1.044,2.61A.522.522,0,0,1,196.777,14.308Z" transform="translate(-182.685 -10.129)"/><path class="c" d="M168.878,258.092h-1.044a.522.522,0,0,1-.289-.088l-1.434-.956h-2.818l-1.434.956a.522.522,0,0,1-.287.088h-1.044a.522.522,0,1,1,0-1.044h.886l1.434-.956a.522.522,0,0,1,.289-.088h3.132a.522.522,0,0,1,.289.088l1.434.956h.886a.522.522,0,1,1,0,1.044Z" transform="translate(-152.176 -243.474)"/><path class="c" d="M178.5,430.846a.522.522,0,0,1-.522-.522c0-1.446-1.713-2.61-3.132-2.61s-3.132,1.164-3.132,2.61a.522.522,0,0,1-1.044,0c0-2.088,2.2-3.654,4.175-3.654s4.175,1.566,4.175,3.654A.522.522,0,0,1,178.5,430.846Z" transform="translate(-162.319 -405.789)"/><path class="c" d="M131.657,216.767a.522.522,0,0,1-.522-.522,2.356,2.356,0,0,0-2.6-2.089l-.014,0a.522.522,0,1,1,0-1.044,3.386,3.386,0,0,1,3.651,3.1l0,.033A.522.522,0,0,1,131.657,216.767Z" transform="translate(-121.74 -202.671)"/><path class="c" d="M299.193,216.769a.522.522,0,0,1-.522-.522,3.386,3.386,0,0,1,3.621-3.134l.033,0a.522.522,0,1,1,0,1.044,2.356,2.356,0,0,0-2.608,2.074l0,.014A.522.522,0,0,1,299.193,216.769Z" transform="translate(-284.057 -202.673)"/><path class="c" d="M136.876,239.89a.521.521,0,0,1-.233-.055l-1.978-.989h-.8l-1.978.989a.522.522,0,0,1-.65-.153l-3.132-4.175a.522.522,0,1,1,.835-.626l2.871,3.827,1.7-.849a.522.522,0,0,1,.233-.055h1.044a.522.522,0,0,1,.234.055l1.7.849,2.87-3.827a.522.522,0,0,1,.835.626l-3.132,4.175A.521.521,0,0,1,136.876,239.89Z" transform="translate(-121.74 -223.184)"/><path class="c" d="M24.533,329.368H.524a.522.522,0,0,1-.511-.626l.843-4.218A2.592,2.592,0,0,1,2.247,322.7l1.174-.587a.522.522,0,0,1,.6.1l.266.266L9.7,320.019a.522.522,0,0,1,.586.1l.891.891h2.7l.891-.891a.522.522,0,0,1,.586-.1l5.41,2.459.266-.266a.522.522,0,0,1,.6-.1l1.174.588a2.592,2.592,0,0,1,1.391,1.823l.843,4.217a.522.522,0,0,1-.407.616A.528.528,0,0,1,24.533,329.368ZM1.161,328.324H23.9l-.72-3.594a1.556,1.556,0,0,0-.835-1.093l-.835-.418-.256.256a.522.522,0,0,1-.586.1l-5.413-2.458-.788.788a.522.522,0,0,1-.368.151H10.963a.522.522,0,0,1-.37-.152l-.787-.787L4.394,323.58a.522.522,0,0,1-.586-.1l-.257-.258-.835.418a1.556,1.556,0,0,0-.835,1.093Z" transform="translate(-0.002 -304.311)"/><path class="c" d="M76.764,380.108a.522.522,0,0,1-.5-.385L74.7,373.981a.522.522,0,0,1,1.007-.275l1.566,5.741a.522.522,0,0,1-.366.641h0A.509.509,0,0,1,76.764,380.108Z" transform="translate(-71.023 -355.051)"/><path class="c" d="M384.511,380.108a.509.509,0,0,1-.138-.019.522.522,0,0,1-.366-.641h0l1.566-5.741a.522.522,0,0,1,1.007.275l-1.566,5.741A.522.522,0,0,1,384.511,380.108Z" transform="translate(-365.2 -355.051)"/></g></svg>